<svg version="1.1" id="Layer_1" xmlns="http://www.w3.org/2000/svg" xmlns:xlink="http://www.w3.org/1999/xlink" x="0px" y="0px"
	 width="100%" viewBox="0 150 496 320" enable-background="new 0 0 496 320" xml:space="preserve">
<path fill="#000000" opacity="1.000000" stroke="none" 
	d="
M90.001511,307.373657 
	C85.670692,307.371643 81.825043,307.159760 78.012299,307.423584 
	C73.784935,307.716034 72.633560,305.924835 72.668106,301.893402 
	C72.833679,282.572479 72.754906,263.249451 72.751801,243.927155 
	C72.749420,229.102295 72.851349,214.275757 72.642876,199.453659 
	C72.582771,195.180984 73.825287,193.504608 78.306747,193.640366 
	C97.604851,194.224991 116.957825,192.579803 136.212296,194.729309 
	C146.798187,195.911072 156.873734,198.870178 164.398148,207.077271 
	C174.175507,217.741760 174.705994,233.802170 165.917923,245.113861 
	C165.425629,245.747528 165.024979,246.452408 164.637756,247.039154 
	C165.597260,249.071793 167.535095,249.566116 168.886169,250.748825 
	C174.021637,255.244293 177.623184,260.114746 175.691238,267.677887 
	C174.809616,271.129272 174.664978,275.145416 175.497635,278.588196 
	C178.082596,289.276367 171.451767,294.809692 164.072296,299.582306 
	C155.325378,305.239258 145.208221,307.027527 134.973938,307.245972 
	C120.155533,307.562225 105.325989,307.356598 90.001511,307.373657 
M132.772369,274.570374 
	C135.074753,273.016388 136.305832,270.929413 135.271805,268.189453 
	C134.290802,265.590027 132.066147,264.452301 129.382050,264.319336 
	C126.893486,264.196136 124.395859,264.155243 121.904922,264.207275 
	C119.075394,264.266327 117.580948,263.236847 117.625221,260.151337 
	C117.730133,252.838654 117.703590,245.523346 117.656120,238.209595 
	C117.639648,235.673309 118.791946,234.629974 121.273338,234.621292 
	C123.589958,234.613190 125.962265,234.655609 128.208344,234.187607 
	C131.313202,233.540665 134.035034,231.998184 133.583435,228.196930 
	C133.179626,224.797913 130.517822,223.649841 127.505463,223.418137 
	C125.025558,223.227402 122.514488,223.462387 120.029945,223.306305 
	C116.635185,223.093018 115.341743,224.305344 115.465294,227.921722 
	C115.833717,238.705490 115.913933,249.501328 115.956955,260.293030 
	C115.976578,265.217773 114.726036,270.166809 116.398315,275.638702 
	C121.592308,275.329803 126.835449,276.501160 132.772369,274.570374 
z"/>
<path fill="#000000" opacity="1.000000" stroke="none" 
	d="
M353.349792,236.042023 
	C353.350037,245.132721 353.350037,253.730072 353.350037,262.327423 
	C353.659149,262.407593 353.968231,262.487762 354.277344,262.567963 
	C357.257202,257.092621 360.550537,251.759262 363.115021,246.095825 
	C365.072205,241.773529 367.822723,240.388916 372.420959,240.594391 
	C380.202271,240.942093 388.010345,240.689880 395.568726,240.689880 
	C396.896484,243.289398 395.341736,244.726288 394.521698,246.216751 
	C390.187103,254.095047 385.868378,261.987427 381.279053,269.717590 
	C379.410248,272.865387 379.537811,275.328461 381.553558,278.363617 
	C386.527557,285.853241 391.205414,293.540619 395.941620,301.186127 
	C396.956879,302.825073 398.539215,304.276886 398.196869,307.195282 
	C388.656036,307.195282 379.088043,307.294220 369.524872,307.122650 
	C367.258362,307.082001 366.591492,304.602356 365.582672,302.953461 
	C361.794983,296.762390 358.106689,290.510559 353.339417,284.523376 
	C353.339417,290.601837 353.208466,296.684235 353.390350,302.757233 
	C353.493378,306.198120 352.259766,307.509338 348.764343,307.408661 
	C341.939636,307.212189 335.102417,307.220490 328.276489,307.389862 
	C324.759766,307.477142 323.628754,306.016296 323.639069,302.651947 
	C323.714203,278.163208 323.723511,253.673950 323.628082,229.185333 
	C323.614441,225.689575 324.943207,224.489136 328.342407,224.571014 
	C334.824127,224.727112 341.329132,224.875824 347.792725,224.492355 
	C352.216034,224.229935 353.971924,225.624161 353.387299,230.056091 
	C353.149689,231.857285 353.349030,233.716080 353.349792,236.042023 
z"/>
<path fill="#000000" opacity="1.000000" stroke="none" 
	d="
M321.341187,274.960999 
	C320.785309,292.902893 306.443359,308.083221 289.361908,309.275665 
	C271.322540,310.534973 254.925720,298.253967 251.717911,281.080780 
	C247.817337,260.198975 262.088593,240.989868 283.123016,238.809418 
	C303.385956,236.708954 321.108612,253.255585 321.341187,274.960999 
M291.486969,272.975128 
	C290.372345,269.942780 288.313751,268.371338 285.015594,269.081696 
	C282.888733,269.539764 281.575195,270.950104 281.269348,273.167450 
	C280.914093,275.743317 281.825134,277.707825 284.179108,278.895813 
	C287.512146,280.577881 290.346527,278.567261 291.486969,272.975128 
z"/>
<path fill="#000000" opacity="1.000000" stroke="none" 
	d="
M230.003632,242.772064 
	C238.108887,247.421722 244.683151,253.450531 246.677795,262.246704 
	C248.775070,271.495331 249.911804,281.257050 245.008255,290.257599 
	C240.090363,299.284515 232.692749,305.480408 222.675323,308.178009 
	C203.005661,313.474792 182.240799,300.304169 178.992172,280.002014 
	C176.761551,266.061829 181.427689,254.245239 192.896057,245.770752 
	C204.363876,237.296707 216.796982,236.585342 230.003632,242.772064 
M218.291122,271.519867 
	C216.692581,269.233154 214.628174,268.229828 211.878738,269.270233 
	C209.836914,270.042877 208.612686,271.557922 208.453461,273.724396 
	C208.278046,276.110748 209.436249,277.877441 211.538193,278.942322 
	C215.500183,280.949524 218.744553,277.820160 218.291122,271.519867 
z"/>
<path fill="#000000" opacity="1.000000" stroke="none" 
	d="
M381.451935,219.693420 
	C379.719055,221.622589 378.536591,224.073761 375.576691,222.283859 
	C373.167328,220.826889 373.637665,218.702118 374.158752,216.543549 
	C374.937653,213.317017 375.714844,210.090073 376.493286,206.863434 
	C376.781219,205.669968 377.159180,204.510330 378.750214,204.862595 
	C380.151550,205.172852 380.585632,206.267319 380.373657,207.533890 
	C379.937378,210.140732 379.384186,212.728027 378.666565,216.415649 
	C380.908112,213.949554 382.489960,212.202911 384.079193,210.462936 
	C385.169830,209.268860 386.329163,208.554199 388.010101,209.496902 
	C389.458649,210.309296 389.617859,211.536148 389.338928,212.912094 
	C388.846802,215.339615 388.266479,217.749237 387.674286,220.383194 
	C391.522095,219.377182 392.078003,212.734116 398.214050,214.536865 
	C395.336365,219.571686 391.688080,223.096771 388.120270,226.668945 
	C386.835999,227.954849 385.383392,227.465164 383.991608,226.678772 
	C382.581726,225.882126 382.371246,224.625214 382.713898,223.237549 
	C383.258148,221.033310 383.900970,218.853378 384.901550,215.207703 
	C383.207916,217.409180 382.433411,218.415878 381.451935,219.693420 
z"/>
<path fill="#000000" opacity="1.000000" stroke="none" 
	d="
M402.247131,242.949951 
	C398.243256,243.466858 398.232391,241.196457 398.986237,238.687912 
	C399.630157,236.545120 400.603394,234.501282 401.491455,232.261108 
	C399.286285,232.108734 398.418060,233.550537 397.181946,234.279877 
	C395.864563,235.057205 394.541748,236.078278 393.340424,234.243576 
	C392.322937,232.689590 393.507599,231.771393 394.586151,230.975952 
	C397.526184,228.807678 400.496155,226.679520 403.474609,224.564087 
	C404.588043,223.773285 405.768707,223.073700 407.039215,224.308289 
	C408.112000,225.350754 408.309814,226.560974 407.733459,227.947769 
	C406.793579,230.209274 405.897400,232.488953 404.580048,235.761505 
	C406.960693,234.244812 408.429169,233.305908 409.901154,232.372498 
	C411.165649,231.570679 412.400055,231.298203 413.296082,232.846146 
	C414.080078,234.200562 413.148376,235.039703 412.192657,235.747192 
	C408.990723,238.117508 405.760162,240.449188 402.247131,242.949951 
z"/>
<path fill="#000000" opacity="1.000000" stroke="none" 
	d="
M359.758606,219.295349 
	C354.960907,219.674911 351.918671,218.022720 350.687378,213.607956 
	C349.269440,208.524078 351.491577,203.574554 355.854584,202.129837 
	C360.263031,200.670059 364.730408,202.896072 366.223480,207.296494 
	C368.155365,212.990173 365.987762,217.286835 359.758606,219.295349 
M362.382019,209.178223 
	C360.840424,206.236053 359.031342,203.824249 355.767151,207.247818 
	C354.200928,208.890518 353.844513,211.035706 354.966461,213.180969 
	C355.789520,214.754684 357.088226,215.893600 358.916962,215.447296 
	C361.731964,214.760284 362.818817,212.706253 362.382019,209.178223 
z"/>
<path fill="#000000" opacity="1.000000" stroke="none" 
	d="
M339.441895,222.228317 
	C338.143677,220.170181 337.084229,218.298935 336.209686,216.344940 
	C335.111389,213.891144 334.993195,210.566437 330.694153,211.714539 
	C329.413788,212.056473 328.655182,210.751480 329.206970,209.361237 
	C330.097107,207.118744 339.482880,204.686859 342.248322,206.355408 
	C336.725677,209.477142 339.631958,213.317688 341.026794,217.204651 
	C341.670074,218.997238 344.127167,221.646423 339.441895,222.228317 
z"/>
</svg>